# xmcd
#
# Track frame offsets:
#	182
#	19352
#	39185
#	72875
#	97607
#	138992
#
# Disc length: 2269 seconds
#
# Revision: 3
# Processed by: cddbd v1.5.2PL0 Copyright (c) Steve Scherf et al.
# Submitted via: EZCDAudioConverter 1.3.4.1
#
DISCID=4108db06
DTITLE=David Bowie - Real Cool World
DYEAR=1992
DGENRE=
TTITLE0=Real Cool World [Album Edit]
TTITLE1=Real Cool World [Radio Remix]
TTITLE2=Real Cool World [Cool Dub Thing #1]
TTITLE3=Real Cool World [12'' Club Mix]
TTITLE4=Real Cool World [Cool Dub Overture]
TTITLE5=Real Cool World [Cool Dub Thing #2]
EXTD=
EXTT0=
EXTT1=
EXTT2=
EXTT3=
EXTT4=
EXTT5=
PLAYORDER=
